<?xml version="1.0" encoding="UTF-8" standalone="no"?>
<!DOCTYPE svg PUBLIC "-//W3C//DTD SVG 1.1//EN"
 "http://www.w3.org/Graphics/SVG/1.1/DTD/svg11.dtd">
<!-- Generated by graphviz version 2.47.0 (20210316.0004)
 -->
<!-- Title: dependencies Pages: 1 -->
<svg width="504pt" height="290pt"
 viewBox="0.00 0.00 504.00 290.00" xmlns="http://www.w3.org/2000/svg" xmlns:xlink="http://www.w3.org/1999/xlink">
<g id="graph0" class="graph" transform="scale(1 1) rotate(0) translate(4 286)">
<title>dependencies</title>
<polygon fill="white" stroke="transparent" points="-4,4 -4,-286 500,-286 500,4 -4,4"/>
<text text-anchor="start" x="227.01" y="-42.4" font-family="Times-12" font-weight="bold" font-size="14.00">Legend</text>
<polygon fill="#ffffb3" stroke="transparent" points="14,-10 14,-30 34,-30 34,-10 14,-10"/>
<text text-anchor="start" x="37.63" y="-15.4" font-family="Times-12" font-size="14.00"> &#160;Declarations</text>
<polygon fill="#8dd3c7" stroke="transparent" points="127,-10 127,-30 147,-30 147,-10 127,-10"/>
<text text-anchor="start" x="150.73" y="-15.4" font-family="Times-12" font-size="14.00"> &#160;Module</text>
<polygon fill="#80b1d3" stroke="transparent" points="213,-10 213,-30 233,-30 233,-10 213,-10"/>
<text text-anchor="start" x="236.78" y="-15.4" font-family="Times-12" font-size="14.00"> &#160;Bootstrap</text>
<polygon fill="#fdb462" stroke="transparent" points="310,-10 310,-30 330,-30 330,-10 310,-10"/>
<text text-anchor="start" x="333.67" y="-15.4" font-family="Times-12" font-size="14.00"> &#160;Providers</text>
<polygon fill="#fb8072" stroke="transparent" points="406,-10 406,-30 426,-30 426,-10 406,-10"/>
<text text-anchor="start" x="429.73" y="-15.4" font-family="Times-12" font-size="14.00"> &#160;Exports</text>
<g id="clust7" class="cluster">
<title>cluster_BackupModule</title>
<polygon fill="none" stroke="black" stroke-dasharray="1,5" points="21,-70 21,-274 159,-274 159,-70 21,-70"/>
</g>
<g id="clust9" class="cluster">
<title>cluster_BackupModule_imports</title>
<polygon fill="none" stroke="black" points="29,-78 29,-130 151,-130 151,-78 29,-78"/>
</g>
<g id="clust10" class="cluster">
<title>cluster_BackupModule_exports</title>
<polygon fill="none" stroke="black" points="30,-214 30,-266 150,-266 150,-214 30,-214"/>
</g>
<g id="clust13" class="cluster">
<title>cluster_InfisicalModule</title>
<polygon fill="none" stroke="black" stroke-dasharray="1,5" points="167,-138 167,-206 475,-206 475,-138 167,-138"/>
</g>
<g id="clust16" class="cluster">
<title>cluster_InfisicalModule_exports</title>
<polygon fill="none" stroke="black" points="343,-146 343,-198 467,-198 467,-146 343,-146"/>
</g>
<g id="clust18" class="cluster">
<title>cluster_InfisicalModule_providers</title>
<polygon fill="none" stroke="black" points="175,-146 175,-198 335,-198 335,-146 175,-146"/>
</g>
<!-- InfisicalModule -->
<g id="node1" class="node">
<title>InfisicalModule</title>
<polygon fill="#8dd3c7" stroke="black" points="142.92,-122 139.92,-126 118.92,-126 115.92,-122 37.08,-122 37.08,-86 142.92,-86 142.92,-122"/>
<text text-anchor="middle" x="90" y="-99.8" font-family="Times,serif" font-size="14.00">InfisicalModule</text>
</g>
<!-- BackupModule -->
<g id="node2" class="node">
<title>BackupModule</title>
<polygon fill="#8dd3c7" stroke="black" points="141.32,-190 138.32,-194 117.32,-194 114.32,-190 38.68,-190 38.68,-154 141.32,-154 141.32,-190"/>
<text text-anchor="middle" x="90" y="-167.8" font-family="Times,serif" font-size="14.00">BackupModule</text>
</g>
<!-- InfisicalModule&#45;&gt;BackupModule -->
<g id="edge1" class="edge">
<title>InfisicalModule&#45;&gt;BackupModule</title>
<path fill="none" stroke="black" d="M90,-122.22C90,-122.22 90,-143.73 90,-143.73"/>
<polygon fill="black" stroke="black" points="86.5,-143.73 90,-153.73 93.5,-143.73 86.5,-143.73"/>
</g>
<!-- InfisicalService  -->
<g id="node4" class="node">
<title>InfisicalService </title>
<polygon fill="#fb8072" stroke="black" points="458.84,-190 351.16,-190 351.16,-154 458.84,-154 458.84,-190"/>
<text text-anchor="middle" x="405" y="-167.8" font-family="Times,serif" font-size="14.00">InfisicalService </text>
</g>
<!-- InfisicalModule&#45;&gt;InfisicalService  -->
<g id="edge3" class="edge">
<title>InfisicalModule&#45;&gt;InfisicalService </title>
<path fill="none" stroke="black" stroke-dasharray="5,2" d="M142.72,-98C232.4,-98 405,-98 405,-98 405,-98 405,-143.71 405,-143.71"/>
<polygon fill="black" stroke="black" points="401.5,-143.71 405,-153.71 408.5,-143.71 401.5,-143.71"/>
</g>
<!-- BackupService  -->
<g id="node3" class="node">
<title>BackupService </title>
<polygon fill="#fb8072" stroke="black" points="142.24,-258 37.76,-258 37.76,-222 142.24,-222 142.24,-258"/>
<text text-anchor="middle" x="90" y="-235.8" font-family="Times,serif" font-size="14.00">BackupService </text>
</g>
<!-- BackupModule&#45;&gt;BackupService  -->
<g id="edge2" class="edge">
<title>BackupModule&#45;&gt;BackupService </title>
<path fill="none" stroke="black" stroke-dasharray="5,2" d="M90,-190.22C90,-190.22 90,-211.73 90,-211.73"/>
<polygon fill="black" stroke="black" points="86.5,-211.73 90,-221.73 93.5,-211.73 86.5,-211.73"/>
</g>
<!-- InfisicalService -->
<g id="node5" class="node">
<title>InfisicalService</title>
<ellipse fill="#fdb462" stroke="black" cx="255" cy="-172" rx="71.76" ry="18"/>
<text text-anchor="middle" x="255" y="-167.8" font-family="Times,serif" font-size="14.00">InfisicalService</text>
</g>
<!-- InfisicalService&#45;&gt;InfisicalModule -->
<g id="edge4" class="edge">
<title>InfisicalService&#45;&gt;InfisicalModule</title>
<path fill="none" stroke="black" d="M255,-153.73C255,-135.44 255,-110 255,-110 255,-110 153.12,-110 153.12,-110"/>
<polygon fill="black" stroke="black" points="153.12,-106.5 143.12,-110 153.12,-113.5 153.12,-106.5"/>
</g>
</g>
</svg>
